<?xml version="1.0" encoding="utf-8"?>
<!-- Generator: Adobe Illustrator 23.0.3, SVG Export Plug-In . SVG Version: 6.00 Build 0)  -->
<svg version="1.1" id="Capa_1" focusable="false" xmlns="http://www.w3.org/2000/svg" xmlns:xlink="http://www.w3.org/1999/xlink"
	 x="0px" y="0px" viewBox="0 0 448 512" style="enable-background:new 0 0 448 512;" xml:space="preserve">
<style type="text/css">
	.st0{fill:#FFFFFF;}
</style>
<g>
	<path class="st0" d="M16,87.6h416c8.8,0,16-2.7,16-6.1V66.1c0-3.4-7.2-6.1-16-6.1H16c-8.8,0-16,2.7-16,6.1v15.3
		C0,84.8,7.2,87.6,16,87.6z"/>
	<path class="st0" d="M16,269.8h416c8.8,0,16-2.7,16-6.1v-15.3c0-3.4-7.2-6.1-16-6.1H16c-8.8,0-16,2.7-16,6.1v15.3
		C0,267,7.2,269.8,16,269.8z"/>
	<path class="st0" d="M16,452h416c8.8,0,16-2.7,16-6.1v-15.3c0-3.4-7.2-6.1-16-6.1H16c-8.8,0-16,2.7-16,6.1v15.3
		C0,449.3,7.2,452,16,452z"/>
</g>
</svg>
