<?xml version="1.0" encoding="utf-8"?>
<!-- Generator: Adobe Illustrator 23.0.3, SVG Export Plug-In . SVG Version: 6.00 Build 0)  -->
<svg version="1.1" id="Capa_1" focusable="false" xmlns="http://www.w3.org/2000/svg" xmlns:xlink="http://www.w3.org/1999/xlink"
	 x="0px" y="0px" viewBox="0 0 512 512" style="enable-background:new 0 0 512 512;" xml:space="preserve">
<style type="text/css">
	.st0{fill:#C60A2C;}
	.st1{fill:#FFFFFF;}
</style>
<circle class="st0" cx="260.3" cy="256.7" r="175.2"/>
<path class="st0" d="M338.4,512h-159c-4.8,0-8.7-3.9-8.7-8.7V8.7c0-4.8,3.9-8.7,8.7-8.7h159c4.8,0,8.7,3.9,8.7,8.7v494.5
	C347.1,508.1,343.2,512,338.4,512z"/>
<path class="st1" d="M332.7,285l-50.1-36.5V142.3c0-5-4.1-9-9-9h-24c-5,0-9,4.1-9,9v123.2c0,2.8,1.4,5.6,3.6,7.3l63.6,46.2
	c4.1,3,9.7,2,12.6-1.9l14.1-19.4C337.6,293.6,336.7,287.9,332.7,285z"/>
</svg>
